<svg id="Layer_1" data-name="Layer 1" xmlns="http://www.w3.org/2000/svg" viewBox="0 0 200 200"><defs><style>.cls-1{fill:#191b33;}.cls-2{fill:#ea7575;}</style></defs><title>favicon</title><circle class="cls-1" cx="100" cy="100" r="93.47"/><path class="cls-2" d="M149.33,120.93V122a15.88,15.88,0,0,0-.73,1.59c-.63,1.85-1.1,3.76-1.83,5.57-1.46,3.58-5,4.83-8.6,3.55s-5-4.14-5.72-7.61a39.69,39.69,0,0,0-1.55-4.25,11.5,11.5,0,0,1-1-3.76,9.49,9.49,0,0,0-3.68-7.79c-1.32-1.15-2.57-.72-3.86.07s-.82,1.87-.49,2.91c.16.52.4,1,.59,1.54.58,1.59.76,3.25-.67,4.39a4.81,4.81,0,0,1-4.74,1.14,40.93,40.93,0,0,0-5.43-1.59,7.21,7.21,0,0,0-3.89.07c-1.46.61-1.78,6.06-1,7.46.58,1,1.16,2.56.77,3.44a6.77,6.77,0,0,0,1.25,7.78c.79.93,1.64,1.81,2.38,2.78a25.23,25.23,0,0,1,1.37,2.31c.54.9,1.08,1.8,1.64,2.69.22.35.55.64.74,1,.85,1.6,1.6,3.25,2.51,4.81.81,1.39.66,2.26-.75,3.11h-1.1a50.11,50.11,0,0,1-6.56-1.49,34.67,34.67,0,0,1-11.92-7,24.27,24.27,0,0,0-17.88-6.62A75.43,75.43,0,0,1,68.61,138c-2-.24-4-1.58-5.95-2.43q0-.37,0-.73c1.12-2.14,2.31-4.26,3.34-6.44.78-1.64,1.89-3.38,1.91-5.08a10.45,10.45,0,0,1,2-6.11c1.71-2.46,3.45-4.89,5.14-7.36a6,6,0,0,1,3.95-3,2.62,2.62,0,0,0,1.4-2.11,7.6,7.6,0,0,0-1.27-3.14c-1-1.63-2.17-3.11-3.07-4.77-1.3-2.41-1.23-2.47-3.9-1.64-.58.18-1.11.5-1.68.72-1.54.58-3.07,1.22-4.65,1.67-.47.13-1.09-.27-1.65-.42a5.2,5.2,0,0,1,.52-1.48c.69-.92,1.59-1.69,2.24-2.64,1-1.51,1.86-3.16,2.91-4.65a13.69,13.69,0,0,0,2.57-8.22c0-3.17,0-6.36.29-9.5a17.15,17.15,0,0,1,7.19-12.65,25.18,25.18,0,0,0,5-5c.87-1.15,1.64-2.15,3.08-2.29a65.9,65.9,0,0,1,7.08-.47c4.5,0,8.31-2.17,12.38-3.54h2.2c3.37,1.36,3.37,1.36,1.44,5.81,4.08,1.45,6.57,4.86,9.45,7.81a15.27,15.27,0,0,1,3.86,7.75,11.13,11.13,0,0,0,2.2,4.9c2.71,3,5.8,5.75,8.68,8.65a9.13,9.13,0,0,1,1.17,2,7.61,7.61,0,0,1-2.44.65c-3-.24-5.94-.76-8.92-.94a2.8,2.8,0,0,0-2.27,1.21c-.26.6.31,1.71.77,2.44.7,1.11,1.79,2,2.42,3.13a43.34,43.34,0,0,1,2.37,5.35c.45,1.17,1.26,2.69.86,3.59-.7,1.58-2.35.4-3.6.29-.36,0-.79-.2-1.08-.07-.51.23-1.38.7-1.34,1a46.37,46.37,0,0,0,1.13,5.58c.06.25.85.43,1.3.43a6,6,0,0,1,5.6,3.17c1.34,2.38,2.51,4.87,3.64,7.37.28.62,0,1.46.16,2.16.56,2.4,1.16,4.79,1.86,7.15.12.4.77.63,1.17.95.28-.44.78-.87.8-1.32a25.14,25.14,0,0,0-.11-4.19,2.55,2.55,0,0,1,1.79-3C142.61,117.79,148,119.2,149.33,120.93ZM90.61,52.22l-.08-.91a11.43,11.43,0,0,0-2.56.05c-.45.1-.76.76-1.14,1.17l.38.56Zm19.18-2.44-.07-.59c-.89.05-1.78.06-2.66.19-.13,0-.18.58-.26.88.85,0,1.7,0,2.54,0C109.49,50.24,109.64,49.94,109.79,49.78Z"/></svg>