<svg id="Layer_1" data-name="Layer 1" xmlns="http://www.w3.org/2000/svg" viewBox="0 0 186 67"><defs><style>.cls-1{fill:#ea7575;}</style></defs><title>hv_logo_red</title><path class="cls-1" d="M76.8,40.74c0-4.5,3.5-7.83,8.16-9.58v-.08a6,6,0,0,1-3.79-5.29c0-3.92,4.58-6.79,8.37-6.79,2.87,0,5.33,1.71,5.33,4.08A3.64,3.64,0,0,1,93,26.21l-.46-.33a2.51,2.51,0,0,0,.29-1.33,4.17,4.17,0,0,0-4.33-4.21c-2.42,0-4.62,1.62-4.62,4.12,0,2.29,1.87,4.62,6,5.75l-.17,1c-6.08.63-9.41,4.29-9.41,8.54a7.49,7.49,0,0,0,2.46,5.58,8.71,8.71,0,0,0,6,2.29c3.83,0,8.12-2.37,8.12-6.75,0-2.92-1.92-4.5-5.37-4.5a15.84,15.84,0,0,0-3.08.33l-.08-1.29c.21,0,.87,0,1.71,0a12.53,12.53,0,0,0,7.62-2.62,8.29,8.29,0,0,0,3-6,5,5,0,0,0-4-5.12l.17-.71c3.33.08,6.46,1.71,6.46,5.46,0,4-3.62,7.25-7.41,8.83v.08a4.42,4.42,0,0,1,3.71,4.62,8.54,8.54,0,0,1-4,6.79,15,15,0,0,1-8.41,2.58,12.06,12.06,0,0,1-7-2.08A7.79,7.79,0,0,1,76.8,40.74Z"/><polygon class="cls-1" points="42.34 23.17 42.34 13.07 90 2.76 137.66 13.07 137.66 23.17 138.66 23.17 138.66 12.26 90.11 1.76 90 1.74 41.34 12.26 41.34 23.17 42.34 23.17"/><polygon class="cls-1" points="137.66 43.83 137.66 53.93 90 64.24 42.34 53.93 42.34 43.83 41.34 43.83 41.34 54.74 89.89 65.24 90 65.26 138.66 54.74 138.66 43.83 137.66 43.83"/><path class="cls-1" d="M3.08,27.33v4.53H8.67V27.33h2.08V38.09H8.67V33.55H3.08v4.54H1V27.33Z"/><path class="cls-1" d="M22,27.33V29H17.08v2.83h4.67v1.62H17.08v3.06h5v1.62H15V27.33Z"/><path class="cls-1" d="M29.77,27.33a3.61,3.61,0,0,1,2.47.84,2.77,2.77,0,0,1,1,2.19,2.72,2.72,0,0,1-.47,1.6A3.13,3.13,0,0,1,31.32,33a3.14,3.14,0,0,1,.92.75,9.69,9.69,0,0,1,1,1.61q1,2,1.46,2.69H32.37A13,13,0,0,1,31.73,37a24.71,24.71,0,0,0-1.31-2.31,3.14,3.14,0,0,0-.8-.85,1.6,1.6,0,0,0-.89-.25H28v4.54H25.9V27.33Zm-.47,4.59a1.88,1.88,0,0,0,1.28-.41A1.41,1.41,0,0,0,31,30.4a1.32,1.32,0,0,0-.46-1.1,2.08,2.08,0,0,0-1.32-.37H28v3Z"/><path class="cls-1" d="M43,27.2a6.46,6.46,0,0,1,3,.69,5.43,5.43,0,0,1,0,9.63,6.8,6.8,0,0,1-6.08,0A5.32,5.32,0,0,1,37,32.71a5.41,5.41,0,0,1,.76-2.78,5.29,5.29,0,0,1,2.1-2A6.41,6.41,0,0,1,43,27.2Zm-3.79,5.52a3.83,3.83,0,0,0,.49,1.92A3.36,3.36,0,0,0,41,36a4,4,0,0,0,2,.47,3.74,3.74,0,0,0,2.72-1,3.58,3.58,0,0,0,1.07-2.68,3.88,3.88,0,0,0-.48-1.93,3.32,3.32,0,0,0-1.35-1.33,4.34,4.34,0,0,0-3.93,0,3.29,3.29,0,0,0-1.34,1.32A3.92,3.92,0,0,0,39.19,32.71Z"/><path class="cls-1" d="M59.7,27.33V29H54.83v2.83H59.5v1.62H54.83v3.06h5v1.62H52.75V27.33Z"/><path class="cls-1" d="M66.76,27.2a6.29,6.29,0,0,1,3,.79v1.85a5.92,5.92,0,0,0-3-1,2.14,2.14,0,0,0-1.23.3.94.94,0,0,0-.44.81q0,.61.82,1.12.23.15,1.78.86a5.09,5.09,0,0,1,1.91,1.39,2.92,2.92,0,0,1,.58,1.83,2.8,2.8,0,0,1-1,2.24,3.84,3.84,0,0,1-2.58.85A6.11,6.11,0,0,1,64.89,38a7.66,7.66,0,0,1-1.67-.78v-2a5.22,5.22,0,0,0,3.25,1.43,2.09,2.09,0,0,0,1.23-.33,1,1,0,0,0,.47-.88,1.39,1.39,0,0,0-.82-1.22q-.68-.37-1.75-.89a5.14,5.14,0,0,1-1.9-1.35,2.74,2.74,0,0,1-.63-1.79,2.62,2.62,0,0,1,1-2.16A4.14,4.14,0,0,1,66.76,27.2Z"/><path class="cls-1" d="M108.67,27.36l3,6.9,3-6.9h2.18l-4.75,10.89h-.72l-4.9-10.89Z"/><path class="cls-1" d="M121.66,27.36V38.11h-2.08V27.36Z"/><path class="cls-1" d="M127.58,27.36v9.13h5.22v1.63h-7.3V27.36Z"/><path class="cls-1" d="M136.58,27.36v9.13h5.22v1.63h-7.3V27.36Z"/><path class="cls-1" d="M150.09,27.36l4.75,10.75h-2.19l-1.12-2.62h-4.78l-1,2.62h-2.18L148,27.36Zm-2.71,6.56h3.47L149,29.66Z"/><path class="cls-1" d="M159.65,27.36V38.11h-2.08V27.36Z"/><path class="cls-1" d="M165.31,27.36l6.39,7.51V27.36h2V38.11h-1.79l-6.43-7.63v7.63h-2V27.36Z"/><path class="cls-1" d="M180.63,27.22a6.28,6.28,0,0,1,3,.79v1.85a5.92,5.92,0,0,0-3-1,2.15,2.15,0,0,0-1.23.3A.94.94,0,0,0,179,30q0,.61.82,1.12.23.15,1.78.86a5.09,5.09,0,0,1,1.91,1.39,2.91,2.91,0,0,1,.58,1.83,2.8,2.8,0,0,1-1,2.24,3.84,3.84,0,0,1-2.58.85,6.15,6.15,0,0,1-1.77-.23,7.73,7.73,0,0,1-1.67-.78v-2a5.22,5.22,0,0,0,3.25,1.43,2.09,2.09,0,0,0,1.23-.33,1,1,0,0,0,.47-.88,1.39,1.39,0,0,0-.82-1.22q-.68-.37-1.75-.89a5.15,5.15,0,0,1-1.9-1.35,2.74,2.74,0,0,1-.63-1.79A2.62,2.62,0,0,1,178,28,4.14,4.14,0,0,1,180.63,27.22Z"/></svg>